{"title":"Dragon The Bruce Lee Story - Dragon - La storia di Bruce Lee (19","uid":11897020,"size":1471109823,"categoryP":"video","categoryS":"movies","magnet":"?xt=urn:btih:cc6c13bf49b2f661664513c618612d5e54b45a5a&amp;dn=Dragon+The+Bruce+Lee+Story+-+Dragon+-+La+storia+di+Bruce+Lee+%2819&amp;tr=udp%3A%2F%2Ftracker.openbittorrent.com%3A80&amp;tr=udp%3A%2F%2Fopen.demonii.com%3A1337&amp;tr=udp%3A%2F%2Ftracker.coppersurfer.tk%3A6969&amp;tr=udp%3A%2F%2Fexodus.desync.com%3A6969","seeders":26,"leechers":3,"uploader":"robbyrs4","files":2,"time":1431193534,"description":"Dragon The Bruce Lee Story - Dragon - La storia di Bruce Lee (1993).DVDrip.XviD - Italian English.Ac3.Sub.EngMIRCrew\n\n[center]\n\n[color=red][b][img]http://s19.postimg.org/9qdjr7p77/Original_release_2.png[/img]\n\n[u]NO FOUND ONLY ORIGINAL RELEASE[/u]\n\nDragon - La storia di Bruce Lee - Dragon The Bruce Lee Story (1993)\n\n\n[img]http://www.webalice.it/dobrow/dragon%20the%20bruce%20lee%20story.jpg[/img]\n\n\n[URL=http://www.imdb.com/title/tt0106770/][IMG]http://www.userlogos.org/files/logos/Sucka/imdb_new.png[/IMG][/URL]  \n\n[img]http://s19.postimg.org/vz5tzn42b/1_scheda.png[/img]\n\nTitolo originale \tDragon: The Bruce Lee Story\nPaese di produzione \tUSA\nAnno \t1993\nDurata \t120 min\nGenere \tbiografico, drammatico, arti marziali, romantico\nRegia \tRob Cohen\nSceneggiatura \tRobert Clouse, Linda Lee Cadwell\nCasa di produzione \tRaffella de Laurentiis\nMontaggio \tPeter Amundson\nEffetti speciali \tWilliam H. Schirmer\nMusiche \tRandy Edelman\nScenografia \tDayna Lee\n\n[img]http://s19.postimg.org/q8fnlww2b/1_cast.png[/img]\n\n\n\n    Jason Scott Lee: Bruce Lee\n    Lauren Holly: Linda Lee Cadwell\n    Robert Wagner: Bill Krieger\n    Michael Learned: Vivian Emery\n    Nancy Kwan: Gussie Yang\n    Kay Tong Lim: Philip Tan\n    Ric Young: padre di Bruce\n    Luoyong Wang: Yip Man\n    Sterling Macer Jr.: Jerome Sprout\n    Sven-Ole Thorsen: il demone\n    John Cheung: Johnny Sun\n    Ong Soo Han: Luke Sun\n    Eric Bruskotter: Joe Henderson\n    Chao Li Chi: Elder\n    Michael Cudlitz: Tad Overton\n    Iain M. Parker: Brandon Lee\n    Michelle Tennant: Shannon Lee\n    Sam Hau: Bruce da piccolo\n\n\n   \n[img]http://s19.postimg.org/okgi79i6r/1_trama.png[/img]. \n\nIl film si basa sulle varie vicissitudini che vedono protagonista Bruce Lee durante la sua vita e che sono state racchiuse nel libro Bruce Lee: the man only I knew del 1975, scritto dalla vedova, Linda Lee. La pellicola mostra il rapporto con il padre, il viaggio che lo conduce negli Stati Uniti, l'inizio della sua carriera come attore, il rapporto con la moglie di origine svedese e altri grandi eventi, come l'apertura della prima scuola di Jeet Kune Do, arte marziale e filosofica, elaborata da Bruce Lee e proposta al mondo delle arti marziali.......\n\n[img]http://s19.postimg.org/fzn6g380j/1_story.png[/img]\n\nBased on the life and career of Martial Arts superstar, Bruce Lee. Haunted by demons. Bruce was taught Martial arts at childhood. Bruce then was told by his father to flee to the United States. There, he opened up a Martial Arts school, then was chosen to be the Green Hornet's sidekick, Kato. Then, his big movie career that included &quot;The Big Boss&quot; and &quot;Enter the Dragon&quot;. Fighting many enemies along the way, including his childhood demon. ....\n\n &lt;a href=&quot;\nhttp://extraimago.com/images/2015/05/09/vlcsnap-2015-05-09-17h31m44s168.png[/img]&quot; rel=&quot;nofollow&quot; target=&quot;_NEW&quot;&gt;\nhttp://extraimago.com/images/2015/05/09/vlcsnap-2015-05-09-17h31m44s168.png[/img]&lt;/a&gt; &lt;a href=&quot;\nhttp://extraimago.com/images/2015/05/09/vlcsnap-2015-05-09-17h31m53s36.png[/img]&quot; rel=&quot;nofollow&quot; target=&quot;_NEW&quot;&gt;\nhttp://extraimago.com/images/2015/05/09/vlcsnap-2015-05-09-17h31m53s36.png[/img]&lt;/a&gt; &lt;a href=&quot;\nhttp://extraimago.com/images/2015/05/09/vlcsnap-2015-05-09-17h32m06s157.png[/img]&quot; rel=&quot;nofollow&quot; target=&quot;_NEW&quot;&gt;\nhttp://extraimago.com/images/2015/05/09/vlcsnap-2015-05-09-17h32m06s157.png[/img]&lt;/a&gt;\n\n\n[IMG]http://img153.imageshack.us/img153/3158/restateinseedblood.gif[/img]\n\n\n[img]http://imgur.com/lvhU6.gif[/img]\n\n\n[img]http://s19.postimg.org/a2jaz9qvn/1_dati.png[/img]\n\n\n[spoiler]\nGeneral\nComplete name                            : Dragon - La storia di Bruce Lee - Dragon The Bruce Lee Story (1993).ita.eng.sub.eng.MIRCrew.engDragon - La storia di Bruce Lee - Dragon The Bruce Lee Story(1993).ita.eng.sub.eng.MIRCrew.eng.avi\nFormat                                   : AVI\nFormat/Info                              : Audio Video Interleave\nFile size                                : 1.37 GiB\nDuration                                 : 1h 54mn\nOverall bit rate                         : 1 713 Kbps\nWriting application                      : VirtualDubMod 1.5.10.2 (build 2540/release)\nWriting library                          : VirtualDubMod build 2540/release\n\nVideo\nID                                       : 0\nFormat                                   : MPEG-4 Visual\nFormat profile                           : Advanced Simple@L5\nFormat settings, BVOP                    : 2\nFormat settings, QPel                    : No\nFormat settings, GMC                     : No warppoints\nFormat settings, Matrix                  : Default (H.263)\nCodec ID                                 : XVID\nCodec ID/Hint                            : XviD\nDuration                                 : 1h 54mn\nBit rate                                 : 1 186 Kbps\nWidth                                    : 720 pixels\nHeight                                   : 304 pixels\nDisplay aspect ratio                     : 2.35:1\nOriginal display aspect ratio            : 2.35:1\nFrame rate                               : 25.000 fps\nColor space                              : YUV\nChroma subsampling                       : 4:2:0\nBit depth                                : 8 bits\nScan type                                : Progressive\nCompression mode                         : Lossy\nBits/(Pixel*Frame)                       : 0.217\nStream size                              : 972 MiB (69%)\nWriting library                          : XviD 1.1.2 (UTC 2006-11-01)\n\nAudio #1\nID                                       : 1\nFormat                                   : AC-3\nFormat/Info                              : Audio Coding 3\nMode extension                           : CM (complete main)\nCodec ID                                 : 2000\nDuration                                 : 1h 54mn\nBit rate mode                            : Constant\nBit rate                                 : 256 Kbps\nChannel(s)                               : 2 channels\nChannel positions                        : Front: L R\nSampling rate                            : 48.0 KHz\nBit depth                                : 16 bits\nCompression mode                         : Lossy\nStream size                              : 210 MiB (15%)\nAlignment                                : Split accross interleaves\nInterleave, duration                     : 40 ms (1.00 video frame)\nInterleave, preload duration             : 500 ms\n\nAudio #2\nID                                       : 2\nFormat                                   : AC-3\nFormat/Info                              : Audio Coding 3\nMode extension                           : CM (complete main)\nCodec ID                                 : 2000\nDuration                                 : 1h 54mn\nBit rate mode                            : Constant\nBit rate                                 : 256 Kbps\nChannel(s)                               : 2 channels\nChannel positions                        : Front: L R\nSampling rate                            : 48.0 KHz\nBit depth                                : 16 bits\nCompression mode                         : Lossy\nStream size                              : 210 MiB (15%)\nAlignment                                : Split accross interleaves\nInterleave, duration                     : 40 ms (1.00 video frame)\nInterleave, preload duration             : 500 ms\n\n\n[/spoiler]\n\n[/color][/b][/center]","torrent":{"xt":"urn:btih:cc6c13bf49b2f661664513c618612d5e54b45a5a","amp;dn":"Dragon+The+Bruce+Lee+Story+-+Dragon+-+La+storia+di+Bruce+Lee+%2819","amp;tr":["udp%3A%2F%2Ftracker.openbittorrent.com%3A80","udp%3A%2F%2Fopen.demonii.com%3A1337","udp%3A%2F%2Ftracker.coppersurfer.tk%3A6969","udp%3A%2F%2Fexodus.desync.com%3A6969"],"infoHash":"cc6c13bf49b2f661664513c618612d5e54b45a5a","infoHashBuffer":{"type":"Buffer","data":[204,108,19,191,73,178,246,97,102,69,19,198,24,97,45,94,84,180,90,90]},"announce":[],"urlList":[]}}